<svg width="47" height="74" viewBox="0 0 47 74" fill="none" xmlns="http://www.w3.org/2000/svg">
<path d="M10.2531 8.25493C7.76461 12.3902 6.8225 15.6759 6 21.5C12.8677 19.8985 16.096 18.4761 20.1463 14.5C24.5703 10.1866 25.828 6.99719 26 0C20.3543 0.654344 17.155 1.73936 12.9484 5.15131C11.8773 6.02007 10.9642 7.07326 10.2531 8.25493Z" fill="#2EA550"/>
<path d="M8.4 72.3187C6.67333 72.3187 5.81 71.4553 5.81 69.7287V25.9087C5.81 24.182 6.67333 23.3187 8.4 23.3187H21.77C27.4633 23.3187 31.5933 24.462 34.16 26.7487C36.7267 29.0353 38.01 32.022 38.01 35.7087C38.01 37.2953 37.66 38.812 36.96 40.2587C36.26 41.6587 35.3267 42.8953 34.16 43.9687C33.04 45.042 31.78 45.8353 30.38 46.3487L30.45 46.6287C31.1967 46.7687 31.99 47.0487 32.83 47.4687C33.67 47.8887 34.51 48.4253 35.35 49.0787C36.2367 49.732 37.03 50.5253 37.73 51.4587C38.43 52.3453 38.99 53.3487 39.41 54.4687C39.83 55.5887 40.04 56.8253 40.04 58.1787C40.04 62.7987 38.5467 66.322 35.56 68.7487C32.62 71.1287 28.1867 72.3187 22.26 72.3187H8.4ZM14.98 64.4787H23.03C25.4567 64.4787 27.3233 63.872 28.63 62.6587C29.9367 61.4453 30.59 59.7653 30.59 57.6187C30.59 55.5653 29.8433 54.002 28.35 52.9287C26.8567 51.8087 24.71 51.2487 21.91 51.2487H14.98V64.4787ZM14.98 43.4087H21C23.3333 43.4087 25.1767 42.802 26.53 41.5887C27.8833 40.3753 28.56 38.882 28.56 37.1087C28.56 35.102 27.9533 33.6087 26.74 32.6287C25.5267 31.602 23.6133 31.0887 21 31.0887H14.98V43.4087Z" fill="#E11414"/>
</svg>
