<svg width="43" height="84" viewBox="0 0 43 84" fill="none" xmlns="http://www.w3.org/2000/svg">
<path d="M0 31.5V84H27.3273C28.105 84 28.8824 83.8891 29.6234 83.6534C38.985 80.6755 41.8883 77.3443 42.5 69C42.5588 62.2793 40.4172 58.8774 32.5 53.5C38.7195 48.3158 39.5 46 39.5 41C39 34.5 35.5 28.5 28.5 27.5H4C1.79086 27.5 0 29.2909 0 31.5Z" fill="#FF0F0F"/>
<path d="M11 37.5V50H20.5108C22.1603 50 23.8816 49.8875 25.2764 49.0067C26.9697 47.9374 27.484 46.3853 27.5 43.5C27.3551 41.1091 26.7247 39.7756 24.6573 38.4348C23.6073 37.7538 22.348 37.5 21.0965 37.5H11Z" fill="white"/>
<path d="M11 74.5V58.5H22.3021C24.0691 58.5 25.8675 58.8893 27.2286 60.0161C28.535 61.0977 29.422 62.3263 30.2506 64.1544C30.7903 65.3453 30.953 66.6888 30.6433 67.9591C30.247 69.5848 29.6301 70.8098 28.584 71.9045C26.5723 74.0096 23.4708 74.5 20.559 74.5H11Z" fill="white"/>
<path d="M5.40354 8.13956C2.22764 12.3294 1.03767 15.6218 0 21.5C8.58464 19.8985 12.6199 18.4761 17.6829 14.5C23.2128 10.1866 24.785 6.99719 25 0C17.8306 0.664759 13.8173 1.77401 8.43342 5.31601C7.27259 6.07972 6.24291 7.0322 5.40354 8.13956Z" fill="#2EA550"/>
</svg>
